# xmcd
#
# Track frame offsets:
#	150
#	21361
#	37912
#	50827
#	66706
#	87375
#	100830
#	125998
#	144416
#	160757
#	189183
#	204803
#	223697
#	243298
#	260741
#	279522
#	295310
#	310704
#	325041
#
# Disc length: 4564 seconds
#
# Revision: 0
# Processed by: cddbd v1.5.2PL0 Copyright (c) Steve Scherf et al.
# Submitted via: EasyCDDAExtractor 10.0.3.1
#
DISCID=1f11d213
DTITLE=Various Artist - SAMPLER
DYEAR=1900
DGENRE=
TTITLE0=NEW RADICALS - You Get What You Get
TTITLE1=A+ - Enjoy Yourself
TTITLE2=GENE - Fill Her Up
TTITLE3=THE CRANBERRIES - Promises
TTITLE4=SEMISONIC - Closing Time
TTITLE5=HEY - 4 Pory
TTITLE6=MELKY SEDEK - Raw
TTITLE7=BLASKSTREET - Girlfriend Boyfriend
TTITLE8=BOYZONE - When The Going Gets Tought
TTITLE9=TAB TWO - No Way No War
TTITLE10=ANNA MARIA JOPEK - Ja Wysiadam
TTITLE11=SPIVE GIRLS - My Strongest Suit
TTITLE12=THE ROOTS - You Got Me
TTITLE13=MONSTER MAGNET - See You In Hell
TTITLE14=PRESENCE - Future Love
TTITLE15=JEEPGRRLZ - Re-wired
TTITLE16=SOUNDTRACK - Black Cat White Cat
TTITLE17=TARKAN - Simarik
TTITLE18=LADYSMITH BLACK MAMBAZO - Abezizwe
EXTD=
EXTT0=
EXTT1=
EXTT2=
EXTT3=
EXTT4=
EXTT5=
EXTT6=
EXTT7=
EXTT8=
EXTT9=
EXTT10=
EXTT11=
EXTT12=
EXTT13=
EXTT14=
EXTT15=
EXTT16=
EXTT17=
EXTT18=
PLAYORDER=
